<mxfile host="app.diagrams.net" modified="2024-05-07T03:23:31.786Z" agent="Mozilla/5.0 (X11; Linux x86_64) AppleWebKit/537.36 (KHTML, like Gecko) Chrome/124.0.0.0 Safari/537.36" etag="IMdAzGtqE_kLy3GmVl0N" version="23.1.1" type="github">
  <diagram id="C5RBs43oDa-KdzZeNtuy" name="Page-1">
    <mxGraphModel dx="1687" dy="925" grid="1" gridSize="10" guides="1" tooltips="1" connect="1" arrows="1" fold="1" page="1" pageScale="1" pageWidth="827" pageHeight="1169" math="0" shadow="0">
      <root>
        <mxCell id="WIyWlLk6GJQsqaUBKTNV-0" />
        <mxCell id="WIyWlLk6GJQsqaUBKTNV-1" parent="WIyWlLk6GJQsqaUBKTNV-0" />
        <mxCell id="jv0VEaKdQDyvOlitQpgO-0" value="R" style="rounded=1;whiteSpace=wrap;html=1;" vertex="1" parent="WIyWlLk6GJQsqaUBKTNV-1">
          <mxGeometry x="60" y="100" width="90" height="180" as="geometry" />
        </mxCell>
        <mxCell id="jv0VEaKdQDyvOlitQpgO-9" value="I" style="rounded=1;whiteSpace=wrap;html=1;" vertex="1" parent="WIyWlLk6GJQsqaUBKTNV-1">
          <mxGeometry x="60" y="293" width="90" height="180" as="geometry" />
        </mxCell>
        <mxCell id="jv0VEaKdQDyvOlitQpgO-10" value="Nr = 1" style="text;html=1;strokeColor=none;fillColor=none;align=center;verticalAlign=middle;whiteSpace=wrap;rounded=0;" vertex="1" parent="WIyWlLk6GJQsqaUBKTNV-1">
          <mxGeometry x="75" y="60" width="60" height="30" as="geometry" />
        </mxCell>
        <mxCell id="jv0VEaKdQDyvOlitQpgO-11" value="R" style="rounded=1;whiteSpace=wrap;html=1;" vertex="1" parent="WIyWlLk6GJQsqaUBKTNV-1">
          <mxGeometry x="180" y="100" width="90" height="180" as="geometry" />
        </mxCell>
        <mxCell id="jv0VEaKdQDyvOlitQpgO-12" value="I" style="rounded=1;whiteSpace=wrap;html=1;" vertex="1" parent="WIyWlLk6GJQsqaUBKTNV-1">
          <mxGeometry x="180" y="293" width="90" height="180" as="geometry" />
        </mxCell>
        <mxCell id="jv0VEaKdQDyvOlitQpgO-13" value="Nr = 2" style="text;html=1;strokeColor=none;fillColor=none;align=center;verticalAlign=middle;whiteSpace=wrap;rounded=0;" vertex="1" parent="WIyWlLk6GJQsqaUBKTNV-1">
          <mxGeometry x="195" y="60" width="60" height="30" as="geometry" />
        </mxCell>
        <mxCell id="jv0VEaKdQDyvOlitQpgO-14" value="R" style="rounded=1;whiteSpace=wrap;html=1;" vertex="1" parent="WIyWlLk6GJQsqaUBKTNV-1">
          <mxGeometry x="300" y="100" width="90" height="180" as="geometry" />
        </mxCell>
        <mxCell id="jv0VEaKdQDyvOlitQpgO-15" value="I" style="rounded=1;whiteSpace=wrap;html=1;" vertex="1" parent="WIyWlLk6GJQsqaUBKTNV-1">
          <mxGeometry x="300" y="293" width="90" height="180" as="geometry" />
        </mxCell>
        <mxCell id="jv0VEaKdQDyvOlitQpgO-16" value="Nr = 3" style="text;html=1;strokeColor=none;fillColor=none;align=center;verticalAlign=middle;whiteSpace=wrap;rounded=0;" vertex="1" parent="WIyWlLk6GJQsqaUBKTNV-1">
          <mxGeometry x="315" y="60" width="60" height="30" as="geometry" />
        </mxCell>
      </root>
    </mxGraphModel>
  </diagram>
</mxfile>
